<mxfile host="app.diagrams.net" agent="Mozilla/5.0 (Windows NT 10.0; Win64; x64) AppleWebKit/537.36 (KHTML, like Gecko) Chrome/130.0.0.0 Safari/537.36" version="24.8.4">
  <diagram id="C5RBs43oDa-KdzZeNtuy" name="Page-1">
    <mxGraphModel dx="1059" dy="1097" grid="1" gridSize="10" guides="1" tooltips="1" connect="1" arrows="1" fold="1" page="1" pageScale="1" pageWidth="827" pageHeight="1169" math="0" shadow="0">
      <root>
        <mxCell id="WIyWlLk6GJQsqaUBKTNV-0" />
        <mxCell id="WIyWlLk6GJQsqaUBKTNV-1" parent="WIyWlLk6GJQsqaUBKTNV-0" />
        <mxCell id="bQxdb7WxDdtTiYLuUdKt-0" value="배달 대행 서비스 (Delivery Service)" style="swimlane;whiteSpace=wrap;html=1;" vertex="1" parent="WIyWlLk6GJQsqaUBKTNV-1">
          <mxGeometry x="190" y="100" width="320" height="470" as="geometry" />
        </mxCell>
        <mxCell id="bQxdb7WxDdtTiYLuUdKt-1" value="배달을 요청한다" style="ellipse;whiteSpace=wrap;html=1;" vertex="1" parent="bQxdb7WxDdtTiYLuUdKt-0">
          <mxGeometry x="100" y="50" width="120" height="80" as="geometry" />
        </mxCell>
        <mxCell id="bQxdb7WxDdtTiYLuUdKt-3" value="배달을 승인한다" style="ellipse;whiteSpace=wrap;html=1;" vertex="1" parent="bQxdb7WxDdtTiYLuUdKt-0">
          <mxGeometry x="100" y="260" width="120" height="80" as="geometry" />
        </mxCell>
        <mxCell id="bQxdb7WxDdtTiYLuUdKt-4" value="음식을 배달한다" style="ellipse;whiteSpace=wrap;html=1;" vertex="1" parent="bQxdb7WxDdtTiYLuUdKt-0">
          <mxGeometry x="100" y="370" width="120" height="80" as="geometry" />
        </mxCell>
        <mxCell id="bQxdb7WxDdtTiYLuUdKt-2" value="음식을 전달한다" style="ellipse;whiteSpace=wrap;html=1;" vertex="1" parent="bQxdb7WxDdtTiYLuUdKt-0">
          <mxGeometry x="100" y="160" width="120" height="80" as="geometry" />
        </mxCell>
        <mxCell id="bQxdb7WxDdtTiYLuUdKt-15" value="DeliveryMan" style="shape=umlActor;verticalLabelPosition=bottom;verticalAlign=top;html=1;outlineConnect=0;" vertex="1" parent="bQxdb7WxDdtTiYLuUdKt-0">
          <mxGeometry x="-90" y="325" width="30" height="60" as="geometry" />
        </mxCell>
        <mxCell id="bQxdb7WxDdtTiYLuUdKt-16" value="" style="endArrow=none;html=1;rounded=0;entryX=0;entryY=0.5;entryDx=0;entryDy=0;" edge="1" parent="bQxdb7WxDdtTiYLuUdKt-0" target="bQxdb7WxDdtTiYLuUdKt-3">
          <mxGeometry width="50" height="50" relative="1" as="geometry">
            <mxPoint x="-40" y="345" as="sourcePoint" />
            <mxPoint x="100" y="295" as="targetPoint" />
          </mxGeometry>
        </mxCell>
        <mxCell id="bQxdb7WxDdtTiYLuUdKt-17" value="" style="endArrow=none;html=1;rounded=0;entryX=0;entryY=0.5;entryDx=0;entryDy=0;" edge="1" parent="bQxdb7WxDdtTiYLuUdKt-0" target="bQxdb7WxDdtTiYLuUdKt-4">
          <mxGeometry width="50" height="50" relative="1" as="geometry">
            <mxPoint x="-40" y="365" as="sourcePoint" />
            <mxPoint x="100" y="405" as="targetPoint" />
          </mxGeometry>
        </mxCell>
        <mxCell id="bQxdb7WxDdtTiYLuUdKt-9" value="Store" style="shape=umlActor;verticalLabelPosition=bottom;verticalAlign=top;html=1;outlineConnect=0;" vertex="1" parent="WIyWlLk6GJQsqaUBKTNV-1">
          <mxGeometry x="100" y="220" width="30" height="60" as="geometry" />
        </mxCell>
        <mxCell id="bQxdb7WxDdtTiYLuUdKt-13" value="" style="endArrow=none;html=1;rounded=0;entryX=0;entryY=0.5;entryDx=0;entryDy=0;" edge="1" parent="WIyWlLk6GJQsqaUBKTNV-1" target="bQxdb7WxDdtTiYLuUdKt-1">
          <mxGeometry width="50" height="50" relative="1" as="geometry">
            <mxPoint x="150" y="240" as="sourcePoint" />
            <mxPoint x="210" y="240" as="targetPoint" />
          </mxGeometry>
        </mxCell>
        <mxCell id="bQxdb7WxDdtTiYLuUdKt-14" value="" style="endArrow=none;html=1;rounded=0;entryX=0;entryY=0.5;entryDx=0;entryDy=0;" edge="1" parent="WIyWlLk6GJQsqaUBKTNV-1" target="bQxdb7WxDdtTiYLuUdKt-2">
          <mxGeometry width="50" height="50" relative="1" as="geometry">
            <mxPoint x="150" y="260" as="sourcePoint" />
            <mxPoint x="300" y="200" as="targetPoint" />
          </mxGeometry>
        </mxCell>
      </root>
    </mxGraphModel>
  </diagram>
</mxfile>
